<?xml version="1.0" encoding="UTF-8" standalone="no"?>
<!DOCTYPE svg PUBLIC "-//W3C//DTD SVG 1.1//EN" "http://www.w3.org/Graphics/SVG/1.1/DTD/svg11.dtd">
<svg
   x="0px"
   y="0px"
   width="671.02753"
   height="375.00266"
   viewBox="0 0 671.02753 352.19228"
   xmlns="http://www.w3.org/2000/svg"
   xmlns:xlink="http://www.w3.org/1999/xlink"
   style="enable-background:new 0 0 325.357 325.357;"
   xml:space="preserve">
  <g id="brush">
    <path
     style="fill:#f4eed7"
     d="m 456.55859,44.239349 c -3.25939,2.292263 -3.31167,8.163301 -5.24561,11.901156 -26.17312,75.221015 -51.78525,150.638275 -78.03954,225.831265 65.39509,21.12468 130.53483,43.09227 196.17773,63.41407 4.26278,-0.93135 4.64449,-7.09083 6.65889,-10.44237 1.19036,-2.79027 3.52315,-7.96498 -1.61918,-8.28386 -32.29895,-11.60069 -65.34475,-21.47772 -97.04752,-34.4476 -4.79281,-4.18423 0.91426,-13.21541 6.6543,-10.31836 32.53224,10.14562 64.51659,21.96414 96.91992,32.49023 4.04318,-1.71743 4.0535,-7.50054 5.95117,-11.01953 1.24872,-2.86155 2.7077,-7.51374 -1.79933,-7.97998 -28.62771,-10.51995 -57.96115,-19.31375 -86.26512,-30.5376 -5.17647,-4.29049 0.68192,-14.53727 6.97267,-10.60332 29.06174,8.7042 57.30488,20.11071 86.53514,28.18731 4.13009,-1.70567 3.81521,-7.99768 5.79046,-11.59865 5.43364,-7.69769 -5.43264,-7.31388 -10.40925,-9.85189 -29.63063,-10.56465 -59.88634,-19.72517 -88.93004,-31.72329 -4.48601,-4.55952 1.12471,-13.46055 7.125,-10.05664 32.59318,10.09631 64.71861,21.98594 97.20117,32.56641 4.08554,-3.02765 4.12442,-9.28571 6.12305,-13.7129 2.4049,-4.39039 -2.66514,-5.99376 -6.15252,-6.81929 -27.51766,-9.92718 -55.57489,-18.67992 -82.78303,-29.23539 -4.70959,-4.63569 1.13908,-14.32446 7.39907,-10.46477 29.02421,8.71182 57.58713,19.9081 86.48765,28.67766 3.75728,-2.66086 3.65885,-8.48701 5.26758,-12.55078 1.19779,-2.77799 0.96821,-6.56488 -2.79936,-6.83092 -31.94084,-11.87059 -64.77663,-21.51666 -96.26119,-34.49916 -3.74889,-4.03871 0.1304,-11.97971 5.81446,-10.22656 32.87434,9.65693 64.985,22.28372 97.73242,32.26757 4.38648,-2.419 5.00614,-8.6956 6.99219,-12.97265 1.89333,-3.40993 -0.95895,-6.15606 -4.44532,-6.40235 -28.23434,-10.40981 -57.37997,-18.86184 -85.00976,-30.51562 -3.35531,-4.69482 1.08792,-12.90557 7.08203,-9.95508 29.46292,8.68808 58.43393,20.02704 87.91016,29.09961 2.99921,-5.19296 4.92574,-11.34851 5.33593,-17.31055 -4.00201,-3.95479 -11.03645,-4.15335 -16.0625,-6.76367 -26.89805,-9.872 -54.48237,-17.95123 -80.97265,-28.88867 -7.11557,-1.12976 -4.35376,-11.465742 1.34375,-11.861332 33.25035,9.179322 65.21461,22.707622 98.45312,32.023442 5.44052,1.36862 5.38171,-6.41061 7.16562,-9.70526 1.34875,-2.97928 2.49507,-8.48252 -2.47146,-8.66842 C 585.47263,85.835379 521.79263,64.623046 457.83984,44.317474 c -0.41554,-0.07241 -0.86379,-0.204545 -1.28125,-0.07813 z"
     id="path3462" />
    <path
     style="fill:#ffe680"
     d="m 394.43359,23.213959 c -4.12915,1.577975 -3.57255,8.102868 -5.78146,11.548756 -25.51746,73.958135 -51.51253,147.765705 -76.00174,222.068435 -2.12358,5.29136 5.97062,5.24011 9.12292,7.06162 12.10041,3.92547 23.98836,9.2976 36.36536,11.99893 5.26205,-3.18584 5.05711,-10.94388 7.81055,-15.875 24.50394,-70.42888 49.76389,-140.6103 73.19931,-211.403952 0.64497,-3.20459 4.2183,-8.853183 -0.75791,-10.242539 -14.38501,-5.645543 -28.98501,-11.347669 -43.95703,-15.15625 z"
     id="path3464" />
    <path
     style="fill:#deaa87"
     d="M 333.5293,4.088959 C 320.85466,4.274201 311.96503,16.038948 308.93225,27.351712 301.27795,47.216368 296.10856,68.168248 286.66992,87.23349 281.45481,90.213568 275.4036,85.108242 270.0861,84.506118 199.0683,60.917505 128.48405,35.50421 57.429688,11.866302 49.611959,10.301644 40.760329,6.378015 32.832031,9.38974 c -1.922011,0.741916 -4.266605,0.882445 -5.445312,3.011719 -6.885992,3.50934 -10.03112,11.145296 -11.978516,18.179687 -1.229047,11.942204 5.952329,24.669544 17.890491,27.974928 14.536314,5.87766 29.296726,11.173491 44.16029,16.097338 29.272046,10.600462 59.051476,19.861086 88.310546,30.546878 23.3259,7.64928 46.37624,16.1828 69.65943,23.97841 10.18353,4.22386 21.54052,6.1009 30.82885,11.98643 3.25587,4.29818 -1.65667,9.8032 -2.087,14.3758 -6.03738,20.48074 -14.66641,40.27736 -18.90909,61.24725 -1.40471,11.19867 5.57794,23.10248 16.76367,26.07617 11.26496,3.94962 22.15061,10.24951 34.19531,11.2793 4.07707,-1.40428 3.25396,-7.65221 5.38077,-10.9276 10.31572,-29.3592 20.64239,-58.59515 30.86337,-87.96303 15.68175,-44.14088 30.31769,-88.744369 45.85157,-132.980468 2.67204,-4.888106 -3.8672,-6.937405 -7.33824,-8.060568 C 358.82307,10.086025 346.47995,4.780137 333.5293,4.088959 Z M 42.300781,22.438568 c 10.328859,-0.05267 14.754873,14.513008 6.972657,20.863281 -8.059953,8.415078 -24.251507,-2.76109 -18.939454,-13.410156 1.884882,-4.700647 6.97403,-7.668318 11.966797,-7.453125 z"
     id="path3466" />
    <path
       d="m 670.57474,106.61385 -86.55718,251.37814 c -1.49541,4.33864 -6.22217,6.64403 -10.56083,5.15086 L 257.41232,257.97204 C 235.67811,250.7395 224.20098,226.82686 231.65801,205.16789 L 250.59422,150.17967 28.017723,73.54044 C 6.3623554,66.081655 -5.1896009,42.396634 2.2651725,20.739885 5.8772122,10.247588 13.35923,1.7908114 23.334046,-3.0742315 l 8.99e-4,-4.384e-4 C 33.307963,-7.938836 44.577047,-8.628695 55.067985,-5.01488 L 277.64448,71.624353 296.57847,16.633874 c 3.61292,-10.4904994 11.0945,-18.948175 21.06932,-23.813218 9.97302,-4.864166 21.24344,-5.553565 31.73573,-1.941525 l 104.74105,36.064487 c 0.004,0.0023 211.30424,69.108111 211.30424,69.108111 2.07971,0.719093 3.79289,2.233333 4.75862,4.213371 0.96527,1.98138 1.10467,4.26321 0.38731,6.34875 z M 343.96906,6.5930137 C 337.67459,4.4249043 330.91234,4.8380963 324.92907,7.756333 318.944,10.675446 314.45514,15.749784 312.28837,22.04472 l -21.63942,62.845426 c -1.49541,4.338641 -6.22217,6.644034 -10.56083,5.150861 L 49.654881,10.697227 C 43.360406,8.5291179 36.599057,8.9418715 30.615785,11.860108 24.631154,14.78012 20.14186,19.85356 17.975088,26.148495 13.501597,39.142628 20.433559,53.355258 33.426794,57.829187 L 263.8578,137.17294 c 2.08284,0.71868 3.79603,2.23292 4.76263,4.21476 0.96574,1.98004 1.10557,4.26277 0.38911,6.34787 l -21.6403,62.84363 c -4.47575,12.99635 2.45666,27.20988 15.45259,31.68249 l 34.03887,11.72053 81.14678,-235.667344 z m 49.75147,17.1300563 -81.14678,235.66734 47.13374,16.22945 81.14677,-235.667343 z m 62.84588,21.638078 -81.14813,235.669112 195.59211,63.69725 5.40905,-15.70902 -96.88382,-33.36351 c -4.33954,-1.49497 -6.64494,-6.22173 -5.15086,-10.56083 0.7477,-2.16932 2.30392,-3.83066 4.21475,-4.76264 1.91084,-0.93197 4.17809,-1.13547 6.34787,-0.3891 l 96.88428,33.36218 5.41041,-15.71079 -86.41162,-29.75391 c -4.33954,-1.49497 -6.64494,-6.22173 -5.15086,-10.56083 0.7477,-2.16932 2.30392,-3.83066 4.21475,-4.76264 1.91084,-0.93197 4.17809,-1.13547 6.34787,-0.3891 l 86.41163,29.75391 5.40905,-15.70902 -96.88564,-33.3604 c -4.33954,-1.49497 -6.64494,-6.22173 -5.15087,-10.56083 0.74771,-2.16932 2.30393,-3.83066 4.21476,-4.76264 1.91084,-0.93197 4.17809,-1.13547 6.34787,-0.3891 l 96.88564,33.3604 5.40995,-15.70945 -86.41296,-29.75437 c -4.33954,-1.49497 -6.64494,-6.22173 -5.15086,-10.56083 0.7477,-2.16932 2.30392,-3.83066 4.21475,-4.76264 1.91084,-0.93197 4.17809,-1.13547 6.34787,-0.3891 l 86.41297,29.75437 5.40861,-15.70991 -96.88564,-33.36041 c -4.33954,-1.49497 -6.64494,-6.22173 -5.15087,-10.56083 0.74771,-2.16932 2.30393,-3.83066 4.21476,-4.76263 1.91084,-0.93198 4.17809,-1.13547 6.34787,-0.38911 l 96.88564,33.36041 5.40995,-15.70946 -86.41252,-29.75347 c -4.33954,-1.49497 -6.64494,-6.22173 -5.15087,-10.56083 0.74771,-2.16932 2.30303,-3.83022 4.21476,-4.76263 1.91084,-0.93198 4.17809,-1.13547 6.34787,-0.38911 l 86.41253,29.75347 5.40904,-15.70901 -96.88697,-33.36086 c -4.33954,-1.49498 -6.64494,-6.22173 -5.15086,-10.560835 0.7477,-2.16932 2.30392,-3.830657 4.21475,-4.762634 1.91084,-0.931977 4.17809,-1.135471 6.34787,-0.389103 l 96.88698,33.360862 5.40951,-15.71035 z" />
    <path
       d="m 47.612311,46.708151 c -3.324639,1.621535 -7.082338,1.851027 -10.579924,0.64746 -7.217119,-2.485802 -11.069108,-10.381269 -8.583701,-17.603758 1.204883,-3.49489 3.699634,-6.313808 7.022476,-7.934466 3.32374,-1.621097 7.080101,-1.85105 10.58126,-0.647 7.218894,2.487161 11.068626,10.384842 8.582408,17.598826 -1.203567,3.497586 -3.696981,6.316965 -7.022519,7.938938 z"
       /></g></svg>
