<?xml version="1.0" encoding="UTF-8" standalone="no"?>
<!DOCTYPE svg PUBLIC "-//W3C//DTD SVG 1.1//EN" "http://www.w3.org/Graphics/SVG/1.1/DTD/svg11.dtd">
<svg
   x="0px"
   y="0px"
   width="771.82416"
   height="325.14587"
   viewBox="0 0 771.82416 325.14588"
   xmlns="http://www.w3.org/2000/svg"
   xmlns:xlink="http://www.w3.org/1999/xlink"
   xml:space="preserve">
<g id="paintSpread"><path
         d="m 638.38836,324.7147 c 19.48124,-0.002 21.69809,0.83617 39.918,-5.408 13.235,-5.313 25.176,-12.143 39.618,-13.812 18.45661,-2.3999 37.56945,-18.84334 16.275,-35.615 -10.791,-8.003 -25.601,-7.037 -38.173,-6.444 -9.01,0.425 -28.978,2.954 -30.354,-11.102 -1.232,-12.562 12.92,-16.614 21.033,-21.564 24.312,-14.838 1.885,-39.287 -13.902,-48.783 -9.067,-5.45 -0.741,-12.836 6.829,-12.836 6.97,0 14.002,0.963 20.931,1.654 14.799,1.473 30.121,3.532 44.961,1.489 16.887,-2.322 35.429,-17.593 21.282,-35.612 -14.938,-19.03 -52.895,-5.893 -71.96,-2.352 -15.581,2.895 -51.968,5.691 -30.303,-20.525 8.71,-10.543 7.374,-22.363998 2.195,-34.134998 -5.882,-13.354 16.125,-11.531 21.489,-13.074 4.143,-1.191 8.472,-6.934 9.507,-10.688 2.74,-9.989 6.059,-12.635 13.521,-20.07 7.167,-7.151 19.413,-1.59 27.921,-7.156 6.871,-4.49 11.99122,-20.8197796 -4.15697,-25.0619396 -8.46686,-2.1994 -18.6651,-3.85113004 -61.54968,-3.56128004 C 609.41666,-0.17680764 64.05339,0.37386334 0,0.37386334 L 0,325.14586 Z m 94.029,-304.418998 c -14.018,-4.174 -28.573,-2.646 -42.994,-3.122 -6.819,-0.229 -6.84,-10.8329996 0,-10.6049996 15.385,0.519 30.856,-0.947 45.821,3.5059996 6.536,1.947 3.749,12.178 -2.827,10.221 z m 20.863,133.186998 c -7.431,-8.492 -17.983,-9.817 -28.039,-5.137 -6.157,2.869 -11.548,-6.271 -5.349,-9.155 14.183,-6.606 30.173,-5.457 40.891,6.789 4.479,5.126 -2.993,12.66 -7.503,7.503 z m -73.069,62.559 c -2.542,-4.898 -6.302,-8.606 -10.444,-12.184 -2.189,-1.893 -1.932,-5.567 0,-7.498 2.154,-2.151 5.313,-1.887 7.498,0 4.77,4.125 9.171,8.681 12.091,14.328 3.148,6.061 -5.996,11.425 -9.145,5.354 z m 47.722,73.571 c -3.479,-5.217 -8.409,-7.858 -14.648,-7.979 -6.83,-0.132 -6.841,-10.737 0,-10.605 10.107,0.191 18.222,4.852 23.793,13.23 3.805,5.716 -5.385,11.018 -9.145,5.354 z"></path></g></svg>
